G04*
G04 #@! TF.GenerationSoftware,Altium Limited,Altium Designer,18.1.7 (191)*
G04*
G04 Layer_Color=65535*
%FSLAX44Y44*%
%MOMM*%
G71*
G01*
G75*
%ADD10C,0.2540*%
%ADD11C,0.2900*%
%ADD12C,0.2000*%
%ADD13C,0.1500*%
%ADD14R,2.0000X0.5000*%
D10*
X234429Y297571D02*
G03*
X234600Y297500I71J-71D01*
G01*
X235429Y227071D02*
G03*
X235600Y227000I71J-71D01*
G01*
X210321Y208821D02*
G03*
X210250Y208650I-71J-71D01*
G01*
X119929Y259821D02*
G03*
X120100Y259750I71J-71D01*
G01*
X122700Y-53350D02*
G03*
X125528Y-56178I2828J0D01*
G01*
X351700Y118650D02*
G03*
X351700Y118650I-15500J0D01*
G01*
X101700D02*
G03*
X101700Y118650I-15500J0D01*
G01*
X296372Y-56178D02*
G03*
X299200Y-53350I0J2828D01*
G01*
Y900D01*
X122700Y-53350D02*
Y650D01*
X126700Y46650D02*
Y149650D01*
X295700D02*
X365700D01*
X56700D02*
X126700D01*
X56700Y1650D02*
X365700D01*
X56700D02*
Y149650D01*
X365700Y1650D02*
Y149650D01*
X56700Y46650D02*
X365700D01*
X295700D02*
Y149650D01*
X125528Y-56178D02*
X296372D01*
X279157Y172539D02*
Y182696D01*
X276618Y185235D01*
X271539D01*
X269000Y182696D01*
Y172539D01*
X271539Y170000D01*
X276618D01*
X274078Y175078D02*
X279157Y170000D01*
X276618D02*
X279157Y172539D01*
X284235Y170000D02*
X289313D01*
X286774D01*
Y185235D01*
X284235Y182696D01*
X117157Y272539D02*
Y282696D01*
X114618Y285235D01*
X109539D01*
X107000Y282696D01*
Y272539D01*
X109539Y270000D01*
X114618D01*
X112078Y275078D02*
X117157Y270000D01*
X114618D02*
X117157Y272539D01*
X129853Y270000D02*
Y285235D01*
X122235Y277617D01*
X132392D01*
X326657Y174485D02*
X321578D01*
X324118D01*
Y161789D01*
X321578Y159250D01*
X319039D01*
X316500Y161789D01*
X331735Y159250D02*
X336813D01*
X334274D01*
Y174485D01*
X331735Y171946D01*
X186000Y270750D02*
Y285985D01*
X193617D01*
X196157Y283446D01*
Y278368D01*
X193617Y275828D01*
X186000D01*
X191078D02*
X196157Y270750D01*
X211392Y285985D02*
X201235D01*
Y278368D01*
X206313Y280907D01*
X208853D01*
X211392Y278368D01*
Y273289D01*
X208853Y270750D01*
X203774D01*
X201235Y273289D01*
X210157Y296539D02*
Y306696D01*
X207617Y309235D01*
X202539D01*
X200000Y306696D01*
Y296539D01*
X202539Y294000D01*
X207617D01*
X205078Y299078D02*
X210157Y294000D01*
X207617D02*
X210157Y296539D01*
X215235Y306696D02*
X217774Y309235D01*
X222853D01*
X225392Y306696D01*
Y304157D01*
X222853Y301618D01*
X220313D01*
X222853D01*
X225392Y299078D01*
Y296539D01*
X222853Y294000D01*
X217774D01*
X215235Y296539D01*
X235407Y172039D02*
Y182196D01*
X232868Y184735D01*
X227789D01*
X225250Y182196D01*
Y172039D01*
X227789Y169500D01*
X232868D01*
X230328Y174578D02*
X235407Y169500D01*
X232868D02*
X235407Y172039D01*
X250642Y169500D02*
X240485D01*
X250642Y179657D01*
Y182196D01*
X248103Y184735D01*
X243024D01*
X240485Y182196D01*
X313500Y290735D02*
Y275500D01*
X321118D01*
X323657Y278039D01*
Y288196D01*
X321118Y290735D01*
X313500D01*
X338892Y275500D02*
X328735D01*
X338892Y285657D01*
Y288196D01*
X336353Y290735D01*
X331274D01*
X328735Y288196D01*
X314000Y240485D02*
Y225250D01*
X321618D01*
X324157Y227789D01*
Y237946D01*
X321618Y240485D01*
X314000D01*
X329235Y225250D02*
X334313D01*
X331774D01*
Y240485D01*
X329235Y237946D01*
X110157Y198696D02*
X107618Y201235D01*
X102539D01*
X100000Y198696D01*
Y188539D01*
X102539Y186000D01*
X107618D01*
X110157Y188539D01*
X115235Y186000D02*
X120313D01*
X117774D01*
Y201235D01*
X115235Y198696D01*
D11*
X87614Y158650D02*
G03*
X87614Y158650I-1414J0D01*
G01*
D02*
G03*
X87614Y158650I-1414J0D01*
G01*
D12*
X230500Y261500D02*
Y301500D01*
X270500D01*
Y261500D02*
Y301500D01*
X230500Y261500D02*
X270500D01*
X231500Y191000D02*
X271500D01*
Y231000D01*
X231500D02*
X271500D01*
X231500Y191000D02*
Y231000D01*
X174250Y172750D02*
X214250D01*
X174250Y212750D02*
X214250D01*
X174250Y172750D02*
Y212750D01*
X214250Y172750D02*
Y212750D01*
X156000Y223750D02*
Y263750D01*
X116000Y223750D02*
Y263750D01*
Y223750D02*
X156000D01*
X116000Y263750D02*
X156000D01*
X175200Y236590D02*
X213300D01*
X175200D02*
Y256910D01*
X213300D01*
Y236590D02*
Y256910D01*
X286750Y210750D02*
Y250750D01*
Y210750D02*
X306750D01*
Y250750D01*
X286750D02*
X306750D01*
X286250Y261500D02*
Y301500D01*
Y261500D02*
X306250D01*
Y301500D01*
X286250D02*
X306250D01*
X136610Y175970D02*
Y211530D01*
Y175970D02*
X154390D01*
Y211530D01*
X136610D02*
X154390D01*
D13*
X20998Y215335D02*
Y220000D01*
X17499D01*
Y217667D01*
Y220000D01*
X14000D01*
Y213002D02*
Y210670D01*
Y211836D01*
X18665D01*
Y213002D01*
X14000Y207171D02*
Y204838D01*
Y206005D01*
X20998D01*
Y207171D01*
X14000Y201339D02*
Y199007D01*
Y200173D01*
X18665D01*
Y201339D01*
X11667Y195508D02*
X18665D01*
Y192009D01*
X17499Y190843D01*
X15166D01*
X14000Y192009D01*
Y195508D01*
X11667Y188510D02*
X18665D01*
Y185011D01*
X17499Y183845D01*
X15166D01*
X14000Y185011D01*
Y188510D01*
Y180346D02*
Y178013D01*
X15166Y176847D01*
X17499D01*
X18665Y178013D01*
Y180346D01*
X17499Y181512D01*
X15166D01*
X14000Y180346D01*
X20998Y167517D02*
X16333D01*
X14000Y165184D01*
X16333Y162852D01*
X20998D01*
X18665Y159353D02*
Y157020D01*
X17499Y155854D01*
X14000D01*
Y159353D01*
X15166Y160519D01*
X16333Y159353D01*
Y155854D01*
X14000Y153521D02*
Y151189D01*
Y152355D01*
X20998D01*
Y153521D01*
X14000Y147690D02*
X18665D01*
Y146524D01*
X17499Y145357D01*
X14000D01*
X17499D01*
X18665Y144191D01*
X17499Y143025D01*
X14000D01*
Y139526D02*
Y137193D01*
X15166Y136027D01*
X17499D01*
X18665Y137193D01*
Y139526D01*
X17499Y140692D01*
X15166D01*
X14000Y139526D01*
X18665Y133694D02*
X14000D01*
X16333D01*
X17499Y132528D01*
X18665Y131362D01*
Y130196D01*
X14000Y126697D02*
Y124364D01*
Y125530D01*
X18665D01*
Y126697D01*
X401002Y69499D02*
Y67166D01*
X402169Y66000D01*
X406834D01*
X408000Y67166D01*
Y69499D01*
X406834Y70665D01*
X402169D01*
X401002Y69499D01*
Y72998D02*
X405667D01*
X408000Y75330D01*
X405667Y77663D01*
X401002D01*
Y84661D02*
Y79995D01*
X408000D01*
Y84661D01*
X404501Y79995D02*
Y82328D01*
X408000Y86993D02*
X401002D01*
Y90492D01*
X402169Y91658D01*
X404501D01*
X405667Y90492D01*
Y86993D01*
Y89326D02*
X408000Y91658D01*
X401002Y93991D02*
X405667D01*
X408000Y96324D01*
X405667Y98656D01*
X401002D01*
Y104488D02*
Y102155D01*
X402169Y100989D01*
X406834D01*
X408000Y102155D01*
Y104488D01*
X406834Y105654D01*
X402169D01*
X401002Y104488D01*
Y107986D02*
X408000D01*
Y112652D01*
X401002Y114984D02*
Y119649D01*
Y117317D01*
X408000D01*
Y121982D02*
X403335D01*
X401002Y124315D01*
X403335Y126647D01*
X408000D01*
X404501D01*
Y121982D01*
X402169Y133645D02*
X401002Y132479D01*
Y130146D01*
X402169Y128980D01*
X406834D01*
X408000Y130146D01*
Y132479D01*
X406834Y133645D01*
X404501D01*
Y131312D01*
X401002Y140643D02*
Y135977D01*
X408000D01*
Y140643D01*
X404501Y135977D02*
Y138310D01*
X408000Y149973D02*
X401002D01*
Y153472D01*
X402169Y154638D01*
X404501D01*
X405667Y153472D01*
Y149973D01*
X408000Y156971D02*
X401002D01*
Y160470D01*
X402169Y161636D01*
X404501D01*
X405667Y160470D01*
Y156971D01*
Y159303D02*
X408000Y161636D01*
X401002Y167467D02*
Y165135D01*
X402169Y163969D01*
X406834D01*
X408000Y165135D01*
Y167467D01*
X406834Y168634D01*
X402169D01*
X401002Y167467D01*
Y170966D02*
Y175631D01*
Y173299D01*
X408000D01*
X401002Y182629D02*
Y177964D01*
X408000D01*
Y182629D01*
X404501Y177964D02*
Y180297D01*
X402169Y189627D02*
X401002Y188461D01*
Y186128D01*
X402169Y184962D01*
X406834D01*
X408000Y186128D01*
Y188461D01*
X406834Y189627D01*
X401002Y191959D02*
Y196625D01*
Y194292D01*
X408000D01*
X401002Y198957D02*
Y201290D01*
Y200124D01*
X408000D01*
Y198957D01*
Y201290D01*
X401002Y208288D02*
Y205955D01*
X402169Y204789D01*
X406834D01*
X408000Y205955D01*
Y208288D01*
X406834Y209454D01*
X402169D01*
X401002Y208288D01*
X408000Y211786D02*
X401002D01*
X408000Y216452D01*
X401002D01*
X402169Y230447D02*
X401002Y229281D01*
Y226948D01*
X402169Y225782D01*
X406834D01*
X408000Y226948D01*
Y229281D01*
X406834Y230447D01*
X401002Y232780D02*
Y235112D01*
Y233946D01*
X408000D01*
Y232780D01*
Y235112D01*
Y238611D02*
X401002D01*
Y242110D01*
X402169Y243276D01*
X404501D01*
X405667Y242110D01*
Y238611D01*
Y240944D02*
X408000Y243276D01*
X402169Y250274D02*
X401002Y249108D01*
Y246775D01*
X402169Y245609D01*
X406834D01*
X408000Y246775D01*
Y249108D01*
X406834Y250274D01*
X401002Y252607D02*
X406834D01*
X408000Y253773D01*
Y256106D01*
X406834Y257272D01*
X401002D01*
Y259604D02*
Y261937D01*
Y260771D01*
X408000D01*
Y259604D01*
Y261937D01*
X401002Y265436D02*
Y270101D01*
Y267768D01*
X408000D01*
D14*
X296750Y213250D02*
D03*
X296250Y264000D02*
D03*
M02*
