G04*
G04 #@! TF.GenerationSoftware,Altium Limited,Altium Designer,18.1.7 (191)*
G04*
G04 Layer_Color=8388736*
%FSLAX44Y44*%
%MOMM*%
G71*
G01*
G75*
%ADD20R,1.0032X1.1032*%
%ADD21R,1.1032X1.0032*%
%ADD22R,1.2032X1.5032*%
%ADD23R,1.0032X1.0032*%
%ADD24R,1.2032X1.2032*%
%ADD25C,2.0032*%
%ADD26R,2.0032X2.0032*%
%ADD27C,0.8032*%
D20*
X250500Y291500D02*
D03*
X260000Y271500D02*
D03*
X241000D02*
D03*
X242000Y201000D02*
D03*
X261000D02*
D03*
X251500Y221000D02*
D03*
X145500Y233750D02*
D03*
X126500D02*
D03*
X136000Y253750D02*
D03*
D21*
X184250Y183250D02*
D03*
Y202250D02*
D03*
X204250Y192750D02*
D03*
D22*
X184250Y246750D02*
D03*
X204250D02*
D03*
D23*
X296750Y241250D02*
D03*
Y225250D02*
D03*
X296250Y292000D02*
D03*
Y276000D02*
D03*
D24*
X145500Y201750D02*
D03*
Y185750D02*
D03*
D25*
X252300Y106000D02*
D03*
X224900D02*
D03*
X197500D02*
D03*
X170100D02*
D03*
X266000Y131400D02*
D03*
X238600D02*
D03*
X211200D02*
D03*
X183800D02*
D03*
D26*
X156400D02*
D03*
D27*
X270750Y250000D02*
D03*
X217500Y264000D02*
D03*
X195750Y224250D02*
D03*
X233000Y240000D02*
D03*
X127000Y211000D02*
D03*
X297750Y198500D02*
D03*
X165500Y246250D02*
D03*
X104500Y246500D02*
D03*
M02*
