G04*
G04 #@! TF.GenerationSoftware,Altium Limited,Altium Designer,18.1.7 (191)*
G04*
G04 Layer_Physical_Order=2*
G04 Layer_Color=16711680*
%FSLAX44Y44*%
%MOMM*%
G71*
G01*
G75*
%ADD17R,1.0000X1.3000*%
%ADD28C,0.4000*%
%ADD29C,1.8000*%
%ADD30R,1.8000X1.8000*%
%ADD31C,0.6000*%
%ADD32R,0.7000X0.6000*%
%ADD33R,1.3000X1.0000*%
D17*
X124500Y267000D02*
D03*
X144500D02*
D03*
X270500Y185000D02*
D03*
X250500D02*
D03*
X250750Y227000D02*
D03*
X270750D02*
D03*
D28*
X270750Y250000D02*
X270750Y250000D01*
Y227000D02*
Y250000D01*
X250500Y185000D02*
X250750Y185250D01*
Y227000D01*
Y248250D01*
X235000Y264000D02*
X250750Y248250D01*
X217500Y264000D02*
X235000D01*
X144750Y224250D02*
X195750D01*
X144500Y224500D02*
X144750Y224250D01*
X226750Y246250D02*
X233000Y240000D01*
X189500Y246250D02*
X226750D01*
X188750Y267000D02*
X189500Y266250D01*
X144500Y267000D02*
X188750D01*
X165500Y246250D02*
X189500D01*
X144500Y238500D02*
Y267000D01*
X111750D02*
X124500D01*
X104500Y259750D02*
X111750Y267000D01*
X104500Y246500D02*
Y259750D01*
X134750Y224500D02*
X144500D01*
X127000Y216750D02*
X134750Y224500D01*
X127000Y211000D02*
Y216750D01*
X250500Y168750D02*
Y185000D01*
Y168750D02*
X266000Y153250D01*
Y131400D02*
Y153250D01*
X284250Y185000D02*
X297750Y198500D01*
X270500Y185000D02*
X284250D01*
D29*
X252300Y106000D02*
D03*
X224900D02*
D03*
X197500D02*
D03*
X170100D02*
D03*
X266000Y131400D02*
D03*
X238600D02*
D03*
X211200D02*
D03*
X183800D02*
D03*
D30*
X156400D02*
D03*
D31*
X270750Y250000D02*
D03*
X217500Y264000D02*
D03*
X195750Y224250D02*
D03*
X233000Y240000D02*
D03*
X127000Y211000D02*
D03*
X297750Y198500D02*
D03*
X165500Y246250D02*
D03*
X104500Y246500D02*
D03*
D32*
X144500Y224500D02*
D03*
Y238500D02*
D03*
D33*
X189500Y246250D02*
D03*
Y266250D02*
D03*
M02*
