G04*
G04 #@! TF.GenerationSoftware,Altium Limited,Altium Designer,18.1.7 (191)*
G04*
G04 Layer_Color=32896*
%FSLAX44Y44*%
%MOMM*%
G71*
G01*
G75*
%ADD10C,0.2540*%
%ADD12C,0.2000*%
%ADD36R,1.4000X0.3000*%
D10*
X311000Y220000D02*
Y235235D01*
X303382D01*
X300843Y232696D01*
Y227617D01*
X303382Y225078D01*
X311000D01*
X305922D02*
X300843Y220000D01*
X288147D02*
Y235235D01*
X295765Y227617D01*
X285608D01*
X234000Y178000D02*
Y193235D01*
X226383D01*
X223843Y190696D01*
Y185618D01*
X226383Y183078D01*
X234000D01*
X228922D02*
X223843Y178000D01*
X218765Y190696D02*
X216226Y193235D01*
X211147D01*
X208608Y190696D01*
Y188157D01*
X211147Y185618D01*
X213687D01*
X211147D01*
X208608Y183078D01*
Y180539D01*
X211147Y178000D01*
X216226D01*
X218765Y180539D01*
X148000Y283000D02*
Y298235D01*
X140382D01*
X137843Y295696D01*
Y290618D01*
X140382Y288078D01*
X148000D01*
X142922D02*
X137843Y283000D01*
X122608D02*
X132765D01*
X122608Y293157D01*
Y295696D01*
X125147Y298235D01*
X130226D01*
X132765Y295696D01*
X199000Y282000D02*
Y297235D01*
X191383D01*
X188843Y294696D01*
Y289618D01*
X191383Y287078D01*
X199000D01*
X193922D02*
X188843Y282000D01*
X183765D02*
X178687D01*
X181226D01*
Y297235D01*
X183765Y294696D01*
X164000Y211235D02*
Y196000D01*
X156383D01*
X153843Y198539D01*
Y208696D01*
X156383Y211235D01*
X164000D01*
X148765Y208696D02*
X146226Y211235D01*
X141147D01*
X138608Y208696D01*
Y206157D01*
X141147Y203617D01*
X143687D01*
X141147D01*
X138608Y201078D01*
Y198539D01*
X141147Y196000D01*
X146226D01*
X148765Y198539D01*
D12*
X137500Y217500D02*
X151500D01*
X137500D02*
Y247500D01*
X151500D01*
Y217500D02*
Y247500D01*
X179340Y237200D02*
Y275300D01*
Y237200D02*
X199660D01*
Y275300D01*
X179340D02*
X199660D01*
X115450Y277160D02*
X153550D01*
X115450Y256840D02*
Y277160D01*
Y256840D02*
X153550D01*
Y277160D01*
X241450Y174840D02*
X279550D01*
Y195160D01*
X241450D02*
X279550D01*
X241450Y174840D02*
Y195160D01*
X241700Y237160D02*
X279800D01*
X241700Y216840D02*
Y237160D01*
Y216840D02*
X279800D01*
Y237160D01*
D36*
X144500Y246000D02*
D03*
M02*
